<svg id="apple" version="1.1" width="100%" height="100%" viewBox="0 0 421 286" preserveAspectRatio="xMidYMid meet">
	<path fill-rule="evenodd" clip-rule="evenodd" fill="#E5E5E5" d="M259.7,169.7c-2.7,6-4,8.6-7.4,13.9c-4.8,7.3-11.6,16.5-20.1,16.6
		c-7.5,0.1-9.4-4.9-19.6-4.8c-10.2,0.1-12.3,4.9-19.8,4.8c-8.4-0.1-14.9-8.3-19.7-15.7c-13.5-20.5-14.9-44.6-6.6-57.5
		c5.9-9.1,15.2-14.4,24-14.4c8.9,0,14.6,4.9,21.9,4.9c7.2,0,11.5-4.9,21.9-4.9c7.8,0,16.1,4.3,22,11.6
		C237,134.8,240.1,162.3,259.7,169.7L259.7,169.7z"></path>
	<path fill-rule="evenodd" clip-rule="evenodd" fill="#E5E5E5" d="M226.5,104.4c3.8-4.8,6.6-11.6,5.6-18.6
		c-6.1,0.4-13.3,4.3-17.5,9.4c-3.8,4.6-6.9,11.5-5.7,18.1C215.6,113.5,222.5,109.5,226.5,104.4L226.5,104.4z"></path>
</svg>