<svg id="dieselsellerz" version="1.1" width="100%" height="100%" viewBox="0 0 421 286" preserveAspectRatio="xMidYMid meet">
	<path fill="#E5E5E5" d="M420.5,128.1v37.6h-8.2v-35.2c0-1.7-0.8-2.5-2.5-2.5c-1.5,0-2.8,0.5-4.2,1.4v36.3h-8.3v-35.2
		c0-1.7-0.7-2.5-2.4-2.5c-1.5,0-2.8,0.5-4.3,1.4v36.3h-8.2v-44.7h8.1v2.9c2.1-1.9,4.5-3.4,7.7-3.4h0.3c3.2,0,5.3,1.3,6.3,3.7
		c2.4-2.2,4.8-3.7,8.3-3.7h0.3C418,120.6,420.5,123.2,420.5,128.1z"></path>
	<path fill="#E5E5E5" d="M367.2,120.6h-3.8c-6.6,0-9.9,3.3-9.9,9.9v25.8c0,6.6,3.3,9.9,9.9,9.9h3.8c6.6,0,9.9-3.3,9.9-9.9v-25.8
		C377.1,123.9,373.8,120.6,367.2,120.6z M368.9,155.8c0,2-1,3-3,3h-1.3c-2,0-2.9-1-2.9-3V131c0-2,1-3,2.9-3h1.3c2,0,3,1,3,3V155.8z"></path>
	<path fill="#E5E5E5" d="M340.3,146.8h8.1v9.5c0,6.6-3.3,9.9-9.9,9.9H335c-2.1,0-3.8-0.4-5.2-1c0.6-1,1-2.3,1-3.7
		c0-1.8-0.7-3.4-2-4.7c-1.1-1-2.3-1.6-3.8-1.8v-24.5c0-6.6,3.3-9.9,9.9-9.9h3.4c6.5,0,9.8,3.3,9.8,9.8v8.1h-8.1V131c0-2-1-3-3-3h-1
		c-2,0-2.9,1-2.9,3v24.8c0,2,1,3,2.9,3h1.1c2,0,3-1,3-3V146.8z"></path>
	<path fill="#E5E5E5" d="M327.6,158c1,1,1.5,2.1,1.5,3.5c0,1.6-0.5,2.8-1.5,3.7c-1,0.9-2.1,1.3-3.5,1.3c-1.4,0-2.5-0.4-3.5-1.3
		c-1-0.9-1.5-2.1-1.5-3.7c0-1.3,0.5-2.5,1.4-3.5c0.9-1,2.1-1.5,3.5-1.5C325.4,156.6,326.6,157.1,327.6,158z"></path>
	<path fill="#E5E5E5" d="M299.1,117.6l-21,2l-26,46.1l59.7,12.9l6.1-53.3L299.1,117.6z M298.4,119.8c1.7,0.2,2.9,0.9,2.8,1.6
		c-0.2,0.6-1.8,1-3.5,0.7c-1.7-0.2-3-1-2.7-1.6C295.1,119.9,296.7,119.6,298.4,119.8z M309.1,129.5l-31,29.4l24.1,4.8l-1.3,6.3
		l-37-7.7l2.8-5.7l33.1-28.6l-17.3-2.6l1.5-3l25.7,3.7L309.1,129.5z"></path>
	<path fill="#E5E5E5" d="M265.4,121.4v7c-3.2,0.2-5.3,1.1-7.1,2.8v13.2l-6.2,11v-33.5h6.2v4.6C260.2,123,262.1,121.4,265.4,121.4z"></path>
	<path fill="#E5E5E5" d="M188.2,121.3h-1.3c-6.6,0-9.9,3.3-9.9,9.9v25.1c0,6.6,3.3,9.9,9.9,9.9h1.3c6.6,0,9.9-3.3,9.9-9.9v-4.8h-6v5
		c0,2.6-1.3,3.9-3.9,3.9h-1.1c-2.6,0-3.9-1.3-3.9-3.9V146h15v-14.8C198.1,124.6,194.8,121.3,188.2,121.3z M191.9,140.2h-8.8V131
		c0-2.6,1.3-3.9,3.9-3.9h1c2.6,0,3.9,1.3,3.9,3.9V140.2z"></path>
	<rect x="214.6" y="107.9" fill="#E5E5E5" width="6.2" height="57.8"></rect>
	<rect x="203.3" y="107.9" fill="#E5E5E5" width="6.2" height="57.8"></rect>
	<path fill="#E5E5E5" d="M237.1,121.3h-1.3c-6.6,0-9.9,3.3-9.9,9.9v25.1c0,6.6,3.3,9.9,9.9,9.9h1.3c6.6,0,9.9-3.3,9.9-9.9v-4.8h-6v5
		c0,2.6-1.3,3.9-3.9,3.9H236c-2.6,0-3.9-1.3-3.9-3.9V146h15v-14.8C247,124.6,243.7,121.3,237.1,121.3z M240.9,140.2h-8.8V131
		c0-2.6,1.3-3.9,3.9-3.9h1c2.6,0,3.9,1.3,3.9,3.9V140.2z"></path>
	<path fill="#E5E5E5" d="M171.8,147.3v8.3c0,7.1-3.5,10.6-10.6,10.6h-1.8c-7,0-10.4-3.5-10.4-10.4v-12h6.3V156
		c0,2.9,1.4,4.3,4.3,4.3h1.3c2.9,0,4.3-1.4,4.3-4.3v-8.5c0-2.8-1-4.1-2.9-5.5l-8-5.8c-4.2-3-5.5-5.9-5.5-10.6v-6.8
		c0-7.1,3.5-10.6,10.6-10.6h1.6c7,0,10.4,3.5,10.4,10.4v10.3h-6.3v-10.5c0-2.9-1.4-4.3-4.3-4.3h-1.1c-2.9,0-4.3,1.4-4.3,4.3v7.2
		c0,2.8,1.1,4.1,2.9,5.5l7.9,5.7C170.5,139.8,171.8,142.5,171.8,147.3z"></path>
	<polygon fill="#E5E5E5" points="134,107.9 134,157.9 143.8,157.9 143.8,165.9 125.1,165.9 125.1,107.9 	"></polygon>
	<polygon fill="#E5E5E5" points="120.2,107.9 120.2,115.9 109.4,115.9 109.4,132.3 119.8,132.3 119.8,140.4 109.4,140.4
		109.4,157.9 120.4,157.9 120.4,165.9 100.5,165.9 100.5,107.9 	"></polygon>
	<path fill="#E5E5E5" d="M95.7,146.2v9.5c0,7.2-3.6,10.8-10.8,10.8H81c-7.2,0-10.7-3.6-10.7-10.7v-12.3h8.6v11.9
		c0,2.2,1.1,3.3,3.4,3.3h1.2c2.3,0,3.4-1.1,3.4-3.3v-8c0-2.4-0.8-3.5-2.5-4.7l-9-6.5c-4-2.8-5.1-5.6-5.1-10v-8
		c0-7.2,3.6-10.8,10.8-10.8h3.7c7.1,0,10.7,3.6,10.7,10.7v10.5h-8.7v-10.2c0-2.2-1.1-3.3-3.3-3.3h-1.1c-2.2,0-3.3,1.1-3.3,3.3v6.5
		c0,2.4,0.8,3.6,2.5,4.7l9,6.5C94.4,139,95.7,141.5,95.7,146.2z"></path>
	<polygon fill="#E5E5E5" points="65.7,107.9 65.7,115.9 54.9,115.9 54.9,132.3 65.3,132.3 65.3,140.4 54.9,140.4 54.9,157.9
		65.9,157.9 65.9,165.9 46,165.9 46,107.9 	"></polygon>
	<rect x="31.8" y="107.9" fill="#E5E5E5" width="8.9" height="58"></rect>
	<path fill="#E5E5E5" d="M0.5,107.9h13.3c8.6,0,12.7,4.1,12.7,12.7v32.7c0,8.5-4.1,12.7-12.7,12.7H0.5V107.9z M9.4,158.1h3.2
		c3.5,0,5.1-1.7,5.1-5.1v-32.2c0-3.5-1.6-5.1-5.1-5.1H9.4V158.1z"></path>
</svg>