<svg id="gameit" version="1.1" width="100%" height="100%" viewBox="0 0 421 286" preserveAspectRatio="xMidYMid meet">
        <path fill="#E5E5E5" d="M325.1,109v11.1h10v9.6h-10.1v14.9c0,4.2,2.3,5.3,4.5,5.3c1.4,0,3.5-0.3,4.8-1l2.7,9.6
        c-2.9,1.1-5.2,1.6-8.4,1.8c-8.6,0.4-15.1-3.4-15.1-15.7v-14.9h-7.1v-9.6h7.1v-9.8L325.1,109z"></path>
        <path fill="#E5E5E5" d="M302.4,109.3c0,8.7-13.2,8.7-13.2,0C289.2,100.6,302.4,100.6,302.4,109.3z"></path>
        <rect x="290" y="119.7" fill="#E5E5E5" width="11.6" height="39.8"></rect>
        <path fill="#E5E5E5" d="M256.2,143.4c0.6,3.9,4.3,7,10.8,7c3.1,0,7.5-0.7,10.3-3.1l6.5,7.2c-4.3,4.2-11.1,5.9-17,5.9
        c-14.4,0-22.3-8.4-22.3-21.1c0-12.1,8.1-20.5,21.1-20.5c13.5,0,22.3,8.4,19.8,24.7H256.2z M275,135c-0.2-4.3-4.7-6.3-9.5-6.3
        c-4.7,0-8.2,2.4-9.3,6.3H275z"></path>
        <path fill="#E5E5E5" d="M204.7,159.5v-21.3c0-5.2-2.1-8.7-6.8-8.7c-4.6,0-7.2,4.3-7.2,8.8v21.2h-11.6v-39.7h10.1l0.8,4.5
        c2.5-4.3,7.1-5.4,10.4-5.4c4.3,0,9,1.6,11.6,7.4c3.5-5.4,7.3-7.5,13.2-7.5c8.3,0,15.8,4.2,15.8,19v21.7h-11.7v-21.5
        c0-5-1.4-8.3-6-8.3c-4.6,0-7.3,3.9-7.3,8.4v21.3H204.7z"></path>
        <path fill="#E5E5E5" d="M162.6,119.8h10.8c0,13.2,0,26.5,0,39.7H163l-0.6-5c-2.7,4.2-8.4,5.8-12.2,5.9
        c-11.9,0.1-20.5-7.6-20.5-20.7c0-13.2,9.1-20.9,20.8-20.7c5,0,9.6,1.9,11.7,5.5L162.6,119.8z M141.2,139.7
        c0,6.6,4.7,10.4,10.4,10.4c6.5,0,10.5-5.1,10.5-10c0-5.7-3.6-10.9-10.5-10.9C145.8,129.1,141.2,133.1,141.2,139.7z"></path>
        <path fill="#E5E5E5" d="M95.3,165c0.4,6.1,4.7,8,10,8c5.1,0,9.8-2.4,9.8-7.3c0-3.9-2.5-6.8-9.6-6.8c-13,0-21.5-7.7-21.5-20
        c0-13.5,10.4-20.2,21.5-20.2c2.8,0,6.7,0.4,9.3,2.2l4.3-5.6l8.4,6.4l-5.1,6c2.8,3.4,4.3,7.5,4.1,11.4c-0.2,5.6-2.7,10.9-8.5,13.9
        c8.8,3.9,8.8,10.4,8.8,12.8c0,11.8-10.6,17.5-21.5,17.5c-13.7,0-20.9-6.8-20.7-18.2H95.3z M95.1,138.9c0,5.7,4.4,9.5,10.3,9.5
        c5.2,0,10-3.1,10-9.5c0-5.5-4.2-10-10-10C99.6,128.9,95.1,132.4,95.1,138.9z"></path>
</svg>