<svg id="harvard" version="1.1" width="100%" height="100%" viewBox="0 0 421 286" preserveAspectRatio="xMidYMid meet">
	<path fill="#E5E5E5" d="M337.1,157.2c-0.4,0-1.5-0.1-2-0.1v0.5c0.5,0.1,0.8,0.3,0.8,0.7c0,0.4-0.2,0.9-0.5,1.4l-3.1,5.4
		c0,0-3-5-3.3-5.4c-0.3-0.4-0.5-0.9-0.5-1.3c0-0.4,0.3-0.7,0.8-0.8v-0.5c-0.6,0-2.4,0.1-2.8,0.1c-0.5,0-2.1-0.1-2.7-0.1v0.5
		c0.8,0.3,1.4,1,2.2,2.2l4.2,6.8v5.3c0,0.6-0.5,1.3-1.4,1.4v0.5c0.6,0,2.3-0.1,2.7-0.1c0.5,0,2.3,0.1,2.8,0.1v-0.5
		c-1-0.2-1.4-0.9-1.4-1.4v-5.3l3.7-6.3c0.7-1.2,1.5-2.3,2.7-2.8v-0.4C338.7,157.2,337.4,157.2,337.1,157.2z"></path>
	<path fill="#E5E5E5" d="M314.7,157.2c-5.7,0-6.6-0.1-7.8-0.2l0,3.4h0.5c0.4-1.5,1.3-1.9,2.4-1.9h3.6v13.2c0,0.9-0.5,1.3-1.5,1.5
		v0.5c0.6,0,2.5-0.1,2.9-0.1c0.5,0,2.3,0.1,2.9,0.1v-0.5c-1-0.2-1.5-0.7-1.5-1.5v-13.2h3.5c1.1,0,2,0.4,2.4,1.9h0.5l0-3.4
		C321.3,157.1,320.4,157.2,314.7,157.2"></path>
	<path fill="#E5E5E5" d="M300.3,159.2c0-0.9-0.5-1.3-1.5-1.5v-0.5c0.6,0,2.4,0.1,2.9,0.1c0.4,0,2.3-0.1,2.9-0.1v0.5
		c-1,0.2-1.5,0.6-1.5,1.5v12.6c0,0.9,0.5,1.3,1.5,1.5v0.5c-0.6,0-2.3-0.1-2.9-0.1c-0.4,0-2.3,0.1-2.9,0.1v-0.5
		c1-0.2,1.5-0.6,1.5-1.5V159.2z"></path>
	<path fill="#E5E5E5" d="M283.6,170h0.5c0.2,0.9,0.8,1.8,1.5,2.3c0.8,0.6,2,0.8,3,0.8c2.2,0,3.6-1.1,3.6-2.8c0-1.8-1.8-2.7-3.9-3.8
		c-1.6-0.8-4.7-2.1-4.7-5.1c0-2.8,2.1-4.5,5.5-4.5c2.3,0,3.3,0.6,4.8,0.5l0,3.4h-0.5c-0.6-2-2.4-2.7-4.4-2.7c-2.2,0-3.1,1.3-3.1,2.6
		c0,1.9,1.8,2.8,3.9,3.7c2.3,1,4.8,2.3,4.8,5.2c0,2.7-2.1,4.7-6.1,4.7c-2.3,0-3.7-0.7-5-0.8L283.6,170z"></path>
	<path fill="#E5E5E5" d="M269.3,165c0.5,0.1,1.3,0.1,2.1,0.1c3.1,0,4.1-1.8,4.1-3.4c0-2.2-1.5-3.6-4.2-3.6c-0.6,0-1.4,0.1-2,0.2V165
		z M269.3,171.8c0,0.9,0.5,1.3,1.5,1.5v0.5c-0.6,0-2.4-0.1-2.9-0.1c-0.4,0-2.2,0.1-2.8,0.1v-0.5c0.9-0.2,1.5-0.6,1.5-1.5V159
		c0-0.8-0.4-1.3-1.5-1.5v-0.5c0.6,0,2.3,0.1,2.8,0.1c0.8,0,3.1-0.1,4-0.1c4,0,6.2,1.6,6.2,4.5c0,2.2-1.7,3.7-4.2,4.3
		c0,0,0.6,0.3,1.2,1c0.7,0.8,2.6,3.6,3.4,4.5c0.8,1,1.8,2,2.9,2.1v0.4c-0.5,0.1-1.3,0.2-2,0.2c-1.4,0-2.4-0.5-3.5-1.7
		c-0.9-1.1-2.4-3.4-3.4-4.6c-0.6-0.7-1.3-1.3-2.6-1.5c-0.2,0-0.5-0.1-0.8-0.1V171.8z"></path>
	<path fill="#E5E5E5" d="M248.1,157.2h10.4c0.3,0,0.9,0,1.2-0.2h0.5l-0.1,3.4h-0.5c-0.4-1.1-0.8-1.9-2.8-1.9h-4.5v5.9h3.5
		c0.5,0,1.1,0,1.4-0.1c0.8-0.2,1.1-0.6,1.3-1.3h0.5c0,0.5,0,1.7,0,2c0,0.3,0,1.6,0,2.1h-0.5c-0.2-0.7-0.5-1.2-1.3-1.4
		c-0.3-0.1-0.9-0.1-1.4-0.1h-3.5v6.9h4.9c2.1,0,2.8-0.9,3.3-2.2l0.5,0.1l-0.5,3.5c-1.6-0.1-2.5-0.1-4.3-0.1H251
		c-0.5,0-2.3,0.1-2.9,0.1v-0.5c0.9-0.2,1.5-0.6,1.5-1.5v-12.7c0-0.8-0.4-1.3-1.5-1.5V157.2z"></path>
	<path fill="#E5E5E5" d="M229.8,159.2c-0.4-0.8-0.9-1.4-1.9-1.6v-0.5c0.6,0,2.6,0.1,3.1,0.1c0.4,0,2.2-0.1,2.8-0.1v0.5
		c-0.5,0.1-1.2,0.4-1.2,1c0,0.4,0.2,0.9,0.7,1.9l4.3,9.8l4.1-9.8c0.3-0.8,0.6-1.4,0.6-1.9c0-0.5-0.5-0.9-1.2-1v-0.5
		c0.5,0,1.9,0.1,2.3,0.1c0.4,0,1.9-0.1,2.5-0.1v0.5c-1,0.3-1.6,0.8-2.2,2.2l-6,14.1h-1.4L229.8,159.2z"></path>
	<path fill="#E5E5E5" d="M221.6,159.2c0-0.9-0.5-1.3-1.5-1.5v-0.5c0.6,0,2.4,0.1,2.9,0.1c0.4,0,2.3-0.1,2.9-0.1v0.5
		c-1,0.2-1.5,0.6-1.5,1.5v12.6c0,0.9,0.5,1.3,1.5,1.5v0.5c-0.6,0-2.3-0.1-2.9-0.1c-0.4,0-2.3,0.1-2.9,0.1v-0.5
		c1-0.2,1.5-0.6,1.5-1.5V159.2z"></path>
	<path fill="#E5E5E5" d="M197.9,173.4c1.1-0.2,1.5-0.7,1.5-1.4v-12.5c0-1.1-0.6-1.5-1.5-1.8v-0.5c0.5,0,1.5,0.1,1.9,0.1
		c0.4,0,1.1,0,1.5-0.1l10.9,12.8V159c0-0.7-0.4-1.2-1.5-1.4v-0.5c0.4,0,1.8,0.1,2.3,0.1c0.4,0,1.9-0.1,2.3-0.1v0.5
		c-1,0.2-1.5,0.7-1.5,1.4v15h-0.7c-0.4-0.1-1.2-0.5-2.4-1.8l-9.7-11.3v11c0,0.7,0.4,1.2,1.4,1.4v0.5c-0.4,0-1.8-0.1-2.3-0.1
		c-0.4,0-1.9,0.1-2.3,0.1V173.4z"></path>
	<path fill="#E5E5E5" d="M178.1,159.1c0-0.7-0.5-1.2-1.4-1.4v-0.5c0.5,0,2.3,0.1,2.8,0.1c0.4,0,2.1-0.1,2.7-0.1v0.5
		c-0.9,0.2-1.3,0.7-1.3,1.4v9.1c0,2.9,1.6,4.5,4.9,4.5c2.8,0,5-1.3,5-4.3V159c0-0.7-0.4-1.2-1.5-1.4v-0.5c0.4,0,1.8,0.1,2.3,0.1
		c0.4,0,1.9-0.1,2.3-0.1v0.5c-1,0.2-1.5,0.7-1.5,1.4v8.8c0,4-2.3,6.2-7.3,6.2c-4.6,0-7-2.1-7-5.8V159.1z"></path>
	<path fill="#E5E5E5" d="M354.6,139.9c1.1,0.2,3.3,0.3,4.9,0.3c9.4,0,14.3-5.7,14.3-13.6c0-8.2-5.2-14-14-14c-1.8,0-4.1,0.1-5.3,0.3
		V139.9z M346.6,141.5c1.9-0.3,2.9-1.1,2.9-2.8v-24.4c0-1.7-1-2.3-2.9-2.7v-0.9c1.1,0,4.5,0.1,5.4,0.1c1.5,0,5.8-0.3,9.1-0.3
		c11.2,0,18,6.3,18,15.8c0,9.3-7.1,16.1-18.7,16.1c-3.3,0-7.3-0.3-8.8-0.3c-0.9,0-4.1,0.1-5.2,0.1V141.5z"></path>
	<path fill="#E5E5E5" d="M319.1,125.8c1,0.1,2.5,0.2,3.9,0.2c5.9,0,7.8-3.4,7.8-6.4c0-4.3-2.8-6.9-8-6.9c-1.1,0-2.6,0.1-3.7,0.3
		V125.8z M319.1,138.6c0,1.6,1,2.5,2.9,2.9v0.9c-1.1,0-4.5-0.1-5.5-0.1c-0.8,0-4.2,0.1-5.3,0.1v-0.9c1.8-0.3,2.8-1.2,2.8-2.9v-24.2
		c0-1.5-0.8-2.4-2.8-2.8v-0.9c1.1,0,4.4,0.1,5.3,0.1c1.5,0,5.9-0.3,7.6-0.3c7.6,0,11.8,3.1,11.8,8.5c0,4.2-3.1,7-7.9,8.2
		c0,0,1.1,0.6,2.2,1.9c1.3,1.6,5,6.8,6.5,8.6c1.5,1.8,3.4,3.8,5.4,3.9v0.7c-1,0.2-2.5,0.4-3.7,0.4c-2.6,0-4.6-0.9-6.6-3.3
		c-1.7-2.1-4.7-6.5-6.4-8.7c-1.1-1.4-2.4-2.5-4.8-2.9c-0.5-0.1-0.9-0.1-1.5-0.2V138.6z"></path>
	<path fill="#E5E5E5" d="M294.1,129.7l-5-11.7l-4.7,11.7H294.1z M273.9,141.5c2-0.5,3.1-1.8,3.8-3.5l10.1-24.3
		c0.4-1,0.9-3.1,0.9-3.1h2.8c0,0,0.5,2.1,0.9,3.1l10.7,24.4c0.8,1.7,1.6,2.9,3.7,3.4l0,0.8c-1.2,0-4.8-0.1-5.6-0.1
		c-0.8,0-4.2,0.1-5.4,0.1v-0.8c1.6-0.4,2-1.2,2-1.9c0-0.7-0.3-1.4-0.6-2.1l-2.3-5.2h-11.8l-2.1,5.3c-0.2,0.6-0.5,1.4-0.5,2
		c0,0.9,0.5,1.6,2.2,2v0.8c-1,0-3.8-0.1-4.5-0.1l-4.6,0.1L273.9,141.5z"></path>
	<path fill="#E5E5E5" d="M245.2,114.8c-0.7-1.5-1.8-2.6-3.5-3v-0.9c1.1,0,4.8,0.1,5.7,0.1c0.8,0,4.4-0.1,5.5-0.1v0.9
		c-1,0.2-2.2,0.8-2.2,1.8c0,0.7,0.5,1.8,1.3,3.7l8.1,18.5l7.7-18.5c0.6-1.5,1-2.6,1-3.5c0-1-0.9-1.7-2.2-1.9v-0.9
		c1,0,3.5,0.1,4.3,0.1c0.7,0,3.7-0.1,4.8-0.1v0.8c-1.9,0.5-3.1,1.6-4.2,4.1l-11.3,26.7h-2.6L245.2,114.8z"></path>
	<path fill="#E5E5E5" d="M219.6,125.8c1,0.1,2.5,0.2,3.9,0.2c5.9,0,7.8-3.4,7.8-6.4c0-4.3-2.8-6.9-8-6.9c-1.1,0-2.6,0.1-3.7,0.3
		V125.8z M219.6,138.6c0,1.6,1,2.5,2.9,2.9v0.9c-1.1,0-4.5-0.1-5.5-0.1c-0.8,0-4.2,0.1-5.3,0.1v-0.9c1.8-0.3,2.8-1.2,2.8-2.9v-24.2
		c0-1.5-0.8-2.4-2.8-2.8v-0.9c1.1,0,4.4,0.1,5.3,0.1c1.5,0,5.9-0.3,7.6-0.3c7.6,0,11.8,3.1,11.8,8.5c0,4.2-3.1,7-7.9,8.2
		c0,0,1.1,0.6,2.2,1.9c1.3,1.6,5,6.8,6.5,8.6c1.5,1.8,3.4,3.8,5.4,3.9v0.7c-1,0.2-2.5,0.4-3.7,0.4c-2.6,0-4.6-0.9-6.6-3.3
		c-1.7-2.1-4.7-6.5-6.4-8.7c-1.1-1.4-2.4-2.5-4.8-2.9c-0.5-0.1-0.9-0.1-1.5-0.2V138.6z"></path>
	<path fill="#E5E5E5" d="M193.9,129.7l-5-11.7l-4.7,11.7H193.9z M173.8,141.5c2-0.5,3.1-1.8,3.8-3.5l10.1-24.3
		c0.4-1,0.9-3.1,0.9-3.1h2.8c0,0,0.5,2.1,0.9,3.1l10.7,24.4c0.8,1.7,1.6,2.9,3.7,3.4l0,0.8c-1.2,0-4.8-0.1-5.6-0.1
		c-0.8,0-4.2,0.1-5.4,0.1l0-0.8c1.6-0.4,2-1.2,2-1.9c0-0.7-0.3-1.4-0.6-2.1l-2.3-5.2h-11.8l-2.1,5.3c-0.2,0.6-0.5,1.4-0.5,2
		c0,0.9,0.5,1.6,2.2,2l0,0.8c-1,0-3.8-0.1-4.5-0.1l-4.6,0.1L173.8,141.5z"></path>
	<path fill="#E5E5E5" d="M135.5,141.5c1.5-0.3,2.5-1,2.5-2.7v-24.5c0-1.6-1-2.3-2.5-2.7v-0.9c0.8,0,4.1,0.1,4.9,0.1
		c0.9,0,4.4-0.1,5.2-0.1v0.9c-1.5,0.3-2.6,1-2.6,2.7v10.2h18.3v-10.2c0-1.7-1-2.3-2.5-2.7v-0.9c0.8,0,4.2,0.1,5.2,0.1
		c0.8,0,4.2-0.1,5-0.1v0.9c-1.5,0.3-2.6,1-2.6,2.7v24.5c0,1.6,1,2.3,2.6,2.7v0.8c-0.8,0-4.2-0.1-5-0.1c-0.9,0-4.4,0.1-5.2,0.1v-0.8
		c1.5-0.3,2.5-1,2.5-2.7v-11.6h-18.3v11.6c0,1.7,1,2.3,2.6,2.7v0.8c-0.8,0-4.3-0.1-5.2-0.1c-0.8,0-4.2,0.1-4.9,0.1V141.5z"></path>
	<path fill="#E5E5E5" d="M114.5,108.8c0-2.1,0-4.1,0-6c0-0.4,0-0.8,0-1.3c-23.9,0-47.7,0-71.7,0c0,10.9,0,20.6,1.1,29.7
		c0.6,4.6,1.4,9,2.7,13.3c2.9,9.9,8.1,19.4,17.2,29.2c2,2.2,4.2,4.2,6.5,6.1c2.4,2,5.1,3.6,7.6,5.5c0.6,0.5,1,0.6,1.6,0
		c1.1-0.9,2.3-1.7,3.5-2.5C113.7,161.6,114.6,131,114.5,108.8z M107.2,112.7c0-0.3-0.1-0.6,0-0.9c0.1-0.2,0.3-0.3,0.5-0.5
		c0.1,0.1,0.3,0.3,0.3,0.4c0,0.9,0,1.9,0,2.8c0,0.7,0,1.4,0,2.1c0.1-0.1,0,1.8,0,2.4c0,0.3,0,0.5,0,0.8c0.1,1.6-0.6,3-0.5,4.6
		c0.2,1.6,0,3.1,0,4.7c0,0.2-0.3,0.3-0.4,0.5c-0.1-0.2-0.4-0.4-0.4-0.6c0-1.8-0.3-3.6,0-5.4C107.5,120.1,107,116.4,107.2,112.7z
		 M107.1,131c-3.4,0-6.8,0-10.4,0c0.4-0.4,0.6-0.7,0.9-0.8c1.6,0,3.1-1,4.8-0.1c0.9,0.5,2.3,0.1,3.4,0.1
		C106.4,130.2,106.9,130.3,107.1,131z M96,129.4c0-5.6,0-11.1,0-16.7c0-0.1,0-0.2,0-0.3c0.1-1,0.5-1.6,1.1-1.9
		c0.4-0.3,0.9-0.4,1.4-0.4c0,0,0,0,0.1,0c0.2,0,0.4,0,0.6,0c0.9-0.1,1.7-0.1,2.6,0.2c0.7,0.1,1.3,0.2,1.8,0.2c1.1,0,2.1,0,3.3,0
		c0,3.8,0,7.5,0,11.2c-0.8,2.3-0.3,4.6-0.4,6.9c-0.1,0.9-0.3,1.2-1.3,1.2c-0.6,0-1.2,0.1-1.7,0c-4.2-0.6-3.3-0.7-7.3,0.4
		C96,129.9,96,129.7,96,129.4z M92.7,110.1c0.9,0,1.6,0.2,2.2,0.9c0.4,0.4,0.7,0.8,0.7,1.4c0,5.9,0,11.8,0,18
		c-0.5-0.2-0.9-0.4-1.3-0.5c-2-0.6-3.4-0.6-6.3,0c-0.4,0.1-0.9,0-1.3,0c-1.4,0-1.8-0.4-1.8-2c0-3.7,0-7.4,0-11.1
		c0-1.1,0.1-2.1,0-3.2c-0.1-0.9-0.3-1.9-0.5-3C87.3,110.7,90,110,92.7,110.1z M93.8,158.3c0,1.2-0.3,2.4-0.5,3.6
		c-0.6-0.2-0.8-0.7-0.7-1.3c0-2-0.3-4,0.1-6c0.6-3.7,0.2-7.3,0.4-10.9c0-0.1,0-0.3,0-0.4c0.1-0.1,0.2-0.2,0.3-0.2
		c0.2,0,0.5,0.1,0.5,0.3c0.1,0.3,0,0.7,0,1.1C93.8,149.1,93.9,153.7,93.8,158.3z M84.9,131.1c-0.2,0-0.3-0.3-0.5-0.5
		c0.1-0.1,0.3-0.3,0.4-0.3c2.2,0.3,4.4-0.5,6.6-0.4c1.1,0.1,2.3,0.2,3.2,1.3C91.4,131.1,88.1,131.1,84.9,131.1z M83.8,111.1
		c1,6.4,0.5,12.5,0.4,18.6c-0.1-0.4-0.1-0.9-0.3-1c-0.7-0.5,0.2-1-0.1-1.3c-0.4-0.5-0.2-0.9-0.2-1.4c0-3.9,0-7.7,0-11.6
		c0-0.7,0.3-1.4-0.4-2C83.1,112.3,83.5,111.7,83.8,111.1z M82.7,118.4c0-0.5-0.8-0.9,0-1.4c-0.2-0.2-0.3-0.5-0.5-0.5
		c-0.6-0.1-1.3,0-1.9-0.1c-0.2,0-0.5-0.4-0.6-0.6c0-0.2,0.3-0.6,0.5-0.6c0.9-0.1,1.8,0,2.8,0c0,2.9,0,5.9,0,8.8c0,1.3-0.1,2.6,0,3.9
		c0.1,1.2,0.3,2.3,0.5,3.6c3.3,0,6.7,0,10.1,0c0,0.2,0.1,0.3,0,0.3c0,0.1-0.1,0.1-0.1,0.1c-3.6,0-7.2,0-11,0c0-1.3,0-2.5,0-3.9
		c-0.8,0-1.5,0.1-2.2,0c-0.3,0-0.5-0.4-0.8-0.6c0.3-0.2,0.5-0.6,0.8-0.6c0.7-0.1,1.4,0,2.2,0C82.7,123.9,82.7,121.2,82.7,118.4z
		 M73.8,112.5c0,0,0,0.1-0.1,0.2c-0.3,0.6-0.1,1.4-0.1,2.1c0,4.1,0,8.3,0,12.4c0,0.4,0,0.8,0,1.3c0.2-0.1,0.3,0,0.3-0.1
		c0.1,0,0.1-0.1,0.1-0.2c0-4.3,0-8.6,0-13.1c0.9,0,1.8,0,2.7,0c0.2,0,0.5,0.4,0.6,0.7c0,0.1-0.4,0.5-0.6,0.5c-0.7,0.1-1.4,0-2.2,0
		c0,3.4,0,6.8,0,10.3c0.7,0,1.4-0.1,2.1,0c0.3,0,0.5,0.4,0.8,0.6c-0.3,0.2-0.5,0.6-0.8,0.6c-0.7,0.1-1.4,0-2.2,0c0,1.3,0,2.5,0,3.8
		c-3.9,0-7.7,0-11.5,0c1.7-0.5,3.4-0.3,5.1-0.3c1.8,0,3.6,0,5.5,0c0-0.8,0-1.6,0-2.9c-0.3,0.6-0.4,0.9-0.5,1.1
		c-0.1-0.1-0.3-0.1-0.3-0.2c0-5.6,0-11.2,0-16.7c0-0.6,0.4-1.3,0.6-2C73.7,111.4,74,111.8,73.8,112.5z M64.6,160.6
		c0,0.4-0.2,0.8-0.3,1.1c0,0.1-0.3,0.2-0.4,0.2c-0.2-0.1-0.3-0.3-0.5-0.4c1-0.8-0.1-1.6,0-2.4c0-0.1,0-0.3,0-0.4c0-4.8,0-9.6,0-14.4
		c0-0.2,0-0.4,0-0.6c0-0.2,0.2-0.3,0.3-0.4c0.2,0.2,0.5,0.3,0.5,0.5c0,1.1,0,2.3,0,3.4c0,0.6,0,1.1,0,1.7c0,1.2-0.1,2.4,0,3.6
		c0.1,1.4,0.3,2.7,0.4,4.1C64.7,157.8,64.7,159.2,64.6,160.6z M65.5,162c3.2,0,6.4,0,9.6,0c0.6,0,1.3,0.3,1.9,0.5c0,0.1,0,0.2,0,0.3
		c-4.2,0-8.5,0-12.7,0C64.5,162.1,64.9,162,65.5,162z M62.6,131.1c0-0.1-0.1-0.3-0.1-0.4c0.7-0.3,1.5-0.9,2.2-0.8
		c1.5,0.1,3-0.4,4.5,0.3c0.9,0.4,2.1,0.1,3.2,0.1c0.1,0,0.3,0.2,0.4,0.3c-0.1,0.2-0.3,0.4-0.4,0.5c0,0-0.1,0-0.2,0
		C69,131.1,65.8,131.1,62.6,131.1z M62.4,110.8c2.9-2.9,6.5,0.2,10.5-0.4c-0.2,1.3-0.5,2.4-0.5,3.4c-0.1,4.6,0,9.1,0,13.7
		c0,1.8-1,2.8-2.6,2.2c-1.3-0.5-2.5-0.2-3.7-0.4c-1.5-0.1-2.9-0.1-4.4,1.3c0-2.2,0-3.8,0-5.4c0-4.3,0-8.6,0-12.8
		C61.6,111.7,61.8,111,62.4,110.8z M50.5,119.7c0.1-2.9,0-5.9,0-8.8c0-0.1,0.1-0.3,0.2-0.5c0.7,0,1.5,0,2.3,0c0.9,0,1.6-0.1,2.2-0.3
		c0.1,0,0.1-0.1,0.2-0.1c0.2-0.1,0.4-0.1,0.7-0.1c0.5-0.1,1-0.2,1.6-0.2c0,0,0,0,0,0c0.4-0.3,1.3,0.1,1.9,0.3
		c0.9,0.3,1.7,1.4,1.7,2.3c0,5.8,0,11.6,0,17.4c0,0.1-0.1,0.2-0.1,0.4c-0.8-0.4-1.7-0.7-2.6-0.8c-0.3,0-0.6,0-0.9,0
		c-1.5,0.2-3.1-0.4-4.6,0.4c-0.3,0.2-0.9,0.1-1.3,0c-0.3-0.1-0.6-0.5-0.9-0.8c-0.1-0.1,0-0.3,0-0.4
		C51.2,125.6,50.4,122.7,50.5,119.7z M60.6,131.1c-3.6,0-6.8,0-10.1,0c-0.1,0-0.3-0.3-0.4-0.5c0.1-0.1,0.3-0.3,0.4-0.3
		c2.4-0.2,4.8-0.3,7.3-0.4C58.8,129.7,59.6,130.1,60.6,131.1z M49.2,113.4c0-0.8,0-1.5,0-2.4c0.8,0.4,0.9,0.9,0.9,1.5
		c0,3.9,0,7.7,0,11.6c0,1.5,0.8,3,0.4,4.5c-0.1,0.4-0.3,0.9-0.5,1.3c-0.1-0.1-0.3-0.1-0.4-0.2C49.9,124.2,48.9,118.8,49.2,113.4z
		 M46,127.7c-0.1-0.1-0.2-0.4-0.2-0.5c0-0.1,0.3-0.3,0.4-0.3c0.6,0,1.3,0,2,0c0-3.4,0-6.8,0-10.3c-0.5,0-1,0.1-1.4,0
		c-0.4-0.1-0.7-0.4-1-0.6c-0.1-0.1,0.1-0.6,0.3-0.6c0.5-0.1,1,0,1.5,0c0.4,0,0.7-0.2,1.2-0.3c0,1.8,0,3.7,0,5.5
		c0,3.7,0.8,7.3,0.3,11.2c3.8,0,7.2,0,10.7,0c0,0,0.1,0.1,0.2,0.2c-3.9,0-7.7,0-11.6,0c0-1.3,0-2.6,0-4.1
		C47.5,128,46.7,128.5,46,127.7z M76,164.1c-4.2,0-8.4,0-12.6,0c-0.9,0-1.2-0.3-1.2-1.3c0-1,0-2,0-3c-1.1,0-2,0-2.9,0
		c-0.2,0-0.4-0.1-0.5-0.2c0.1-0.2,0.1-0.6,0.3-0.7c0.2-0.2,0.6-0.3,0.9-0.3c0.7,0,1.4,0,2.1,0c0-3.5,0-6.8,0-10.3c-1,0-1.9,0-2.9,0
		c-0.2,0-0.4-0.2-0.4-0.3c0-0.2,0.1-0.4,0.2-0.5c0.3-0.2,0.6-0.4,0.9-0.4c0.7-0.1,1.4,0,2.3,0c0-0.7-0.1-1.4,0-2.1
		c0.1-0.6-1-1.3,0.3-1.8c0,0.3,0.1,0.6,0.1,0.9c0.8,5.8,0.3,11.6,0.4,17.4c0,0.4,0.3,0.8,0.3,1.1c0.1,0.6,0.4,0.8,1,0.7
		c3.7,0,7.4,0,11.1,0c0.6,0,1.1,0,1.7,0c0,0.1,0.1,0.2,0.1,0.3C76.7,163.8,76.4,164.1,76,164.1z M78.8,162c0-1.5,0-2.8,0-4.2
		c-0.1,0-0.2,0-0.4,0c0,1.3,0,2.7,0,4c-0.7,0.6-1.2,0-1.7-0.2c-0.5-0.1-1.1,0-1.7-0.2c-1.4-0.4-2.2-0.4-3.6,0
		c-0.2,0.1-0.4,0.1-0.6,0.1c-1.6,0-3.1,0-4.7,0c-0.6,0-1-0.4-1-1c0-0.1,0-0.3,0-0.4c0-2,0.3-4.1-0.1-6c-0.4-1.9-0.3-3.8-0.3-5.6
		c-0.1-2,0-4,0-6.2c0.8,0,1.6-0.4,2.3,0.3c0.1,0.1,0.3,0.1,0.4,0c1.3-0.6,2.7-0.1,3.9-0.5c1.5-0.6,2.9-0.3,4.4-0.3
		c0.9,0,1.8,0.8,2.6,1.3c0.2,0.1,0.2,0.5,0.2,0.8c0,1,0,2,0.2,3c0.4-0.9,0.3-1.9,0.3-2.8c0-0.6,0.3-0.8,0.7-1.2
		c1-0.9,2.1-1.2,3.4-1.1c1.1,0.1,2.2-0.1,3.3,0.4c1,0.4,2.2-0.3,3.2,0.5c0.2,0.1,0.6,0.1,0.8-0.1c0.7-0.7,1.5-0.2,2.3-0.4
		c0,3,0.3,5.9-0.1,8.7c-0.5,3-0.2,6-0.3,9.1c-0.1,1.5-0.2,1.6-1.7,1.7c-1.1,0-2.3-0.1-3.4,0c-0.8,0.1-1.3-0.4-2-0.5
		c-1.8-0.1-3.5,0.2-5.2,0.9C79.5,162.1,79.2,162,78.8,162z M82.5,162c3,0.1,6,0,9,0c0.6,0,1.1,0,1.5,0.6c-1.3,0.4-8.9,0.5-13,0.1
		C80.9,162.2,81.6,162,82.5,162z M95.1,162.9c0,0.9-0.4,1.2-1.3,1.2c-2.9,0-5.9,0-8.8,0c-1.3,0-2.6,0-3.9,0c-0.4,0-0.7-0.3-1.1-0.5
		c0.1-0.2,0.1-0.2,0.1-0.3c0,0,0.1-0.1,0.2-0.1c4.4,0,8.9,0,13.3,0c0.8-1.6,0.6-3.3,0.6-4.9c0-4.5,0-9,0-13.5c0-0.6-0.1-1.3,0.8-1.8
		c0,1.4,0,2.6,0,3.9c0.8,0,1.6,0,2.4,0c0.3,0,0.6,0.2,0.9,0.4c0.1,0.1,0.2,0.4,0.2,0.5c0,0.1-0.3,0.3-0.5,0.3c-0.9,0-1.9,0-2.9,0
		c0,3.4,0,6.8,0,10.3c0.8,0,1.6,0,2.3,0c0.5,0,0.5,0,1.1,1.2c-1.2,0-2.3,0-3.5,0C95.1,160.9,95.2,161.9,95.1,162.9z M108.9,128.2
		c0,1.2,0,2.4,0,3.5c-2.1,0.3-10.1,0.3-11.6-0.2c3.5,0,7.1,0,10.7,0c0-2.3,0-4.4,0-6.5c0-3.4,0.8-6.7,0.5-10.2
		c0.7,0.7,1.5,0.3,2.1,0.3c0.8,0.1,0.8,0,0.7,1.3c-0.8,0-1.5,0-2.4,0c0,3.5,0,6.8,0,10.4c0.8,0,1.7,0,2.5,0
		C111.2,128.7,109.8,127.8,108.9,128.2z"></path>
	<path fill="#E5E5E5" d="M81.1,153.8c0.4,0.9,1,1.7,1.5,2.6c-0.9,0-1.8,0-2.8,0c-0.2-0.4,0.3-0.5,0.4-0.7c0.2-0.3,0.5-0.6,0.1-0.9
		c-0.4-0.3,0-1-0.9-1c-0.9,0.1-1.8,0-2.7,0c-0.4,1.1-0.1,1.8,0.9,2.5c-1.3,0-2.2,0-3.4,0c2-1.5,2.3-3.8,3.2-5.7
		c0.2-0.4,0.2-0.9,0.5-1.3c0.2-0.4,0.5-1,0.8-1c0.8-0.1,0.3,0.7,0.5,1.1C80.1,150.8,80.5,152.3,81.1,153.8z M77.7,152.3l0.3,0.5
		c0,0,0.9,0,1.2,0c0.3,0,0.4-0.3,0.4-0.5c0-0.3-0.6-1.9-0.6-1.9l-0.3-0.3l-0.6,0.4C78,150.8,77.7,152.3,77.7,152.3z"></path>
	<path fill="#E5E5E5" d="M84.5,156c0.7,0.6,1.5,0.4,2.2,0.4c1,0,2-0.8,2.4-1.9c0.2-0.6-0.5-2-1.3-2.4c-0.4-0.2-0.9-0.4-1.3-0.4
		c-0.9-0.1-1.7-0.6-2.3-1.2c-0.1-0.1-0.1-0.3-0.1-0.4c0.1-0.7,1.7-1.7,2.2-1.3c0.6,0.5,1.1,1.1,1.5,1.7c0.2,0.3-0.1,1,0.6,0.8
		c0.2,0,0.3-0.6,0.3-0.9c0-0.5,0-1,0-1.5c0-0.6-0.3-0.8-0.8-0.4c-0.4,0.3-0.6,0.2-1.1,0c-0.8-0.3-1.7-0.4-2.6,0.1
		c-0.9,0.6-0.7,1.4-0.7,2.3c0,0.2,0,0.4,0,0.6c0,0.6,0.3,1,0.8,1c0.8,0,1.5,0.7,2.4,0.5c0.3-0.1,0.7,0.5,1.1,0.8
		c0.2,0.2,0.4,0.5,0.4,0.7c0,0.3-0.2,0.7-0.4,0.9c-0.3,0.3-0.8,0.5-1.2,0.6c-0.2,0.1-0.5,0.1-0.6,0c-0.8-0.6-2-0.7-2-2.1
		c0-0.2-0.3-0.3-0.5-0.5c-0.1,0.1-0.3,0.3-0.3,0.4c0,0.8,0,1.7,0,2.7C83.7,156.3,84.3,155.9,84.5,156z"></path>
	<path fill="#E5E5E5" d="M72.1,148.8c0.2-0.1,0.7,0.1,0.8,0.3c0.5,0.7,1,1.4,1.5,2.2c0-1,0-1.9,0-2.9c-2.1,0-4.2,0-6.3,0
		c-0.3,0.8,0.3,1.7-0.5,2.3c0,0,0.2,0.3,0.3,0.5c0,0,0,0.1,0,0.1c0.1-0.1,0.2-0.2,0.3-0.2c0.1-0.1,0.2-0.2,0.2-0.3
		c0.2-0.4,0.2-0.9,0.5-1.3c0.2-0.3,0.7-0.5,1.1-0.8c0.2,0.3,0.6,0.7,0.6,1c0.1,1.5-0.1,3,0.1,4.5c0.1,1.1-0.3,1.7-1.3,2.1
		c1.1,0,2.2,0,3.7,0c-1.6-0.8-1.6-0.8-1.6-1.8c0-1.5,0-3,0-4.5c0-0.1-0.1-0.3,0-0.4C71.7,149.3,71.8,148.9,72.1,148.8z"></path>
	<path fill="#E5E5E5" d="M100.2,123.8c-0.2,0.1-0.5,0.1-0.7,0.1c1.3,0.3,2.6,0.4,4.3,0.2c-1.4-0.3-1.8-0.9-1.7-1.9
		c0.1-1.4,0.1-2.9,0-4.3c0-0.7,0.2-1,0.8-1.2c0.2-0.1,0.3-0.3,0.6-0.6c-1.5,0-2.7,0-4.2,0c0.4,0.3,0.7,0.6,0.9,0.8
		c0.2,0.1,0.5,0.3,0.5,0.4c0,2,0,4,0,6C100.7,123.5,100.4,123.7,100.2,123.8z"></path>
	<path fill="#E5E5E5" d="M86.9,116.9c1-0.2,1,0.4,1,1.1c0,1.4-0.1,2.7,0,4.1c0.1,1.1-0.3,1.6-1.3,2.1c1.1,0,2.2,0,3.4,0
		c-0.3-0.4-1-0.4-0.9-1.1c0.1-0.8,0-1.7,0-2.7c0.5,0.1,1,0,1.2,0.2c0.7,0.5,1.1,1,0.9,2c-0.1,0.5-0.2,1.2,0.5,1.5
		c0.5,0.2,1.1,0.2,1.6,0c0.6-0.3,0.9-0.9,0.3-1.6c-0.1,0.3-0.2,0.5-0.3,0.8c-0.3-0.2-0.7-0.4-0.7-0.5c0-0.8-0.4-1.4-0.8-2.1
		c-0.1-0.2,0-0.7,0.2-0.9c1-1,1-1.1,0.9-2.2c0-0.7-0.3-1-0.9-1.2c-1.7-0.6-3.4-0.4-5.2-0.4c-0.1,0-0.3,0.3-0.3,0.4
		C86.6,116.6,86.8,116.9,86.9,116.9z M89.2,116.9c0.5,0,0.9,0,1.4,0c1.1,0.1,1.6,1.2,0.9,2.1c-0.5,0.8-1.2,1.1-2.3,0.8
		C89.2,118.9,89.2,118,89.2,116.9z"></path>
	<path fill="#E5E5E5" d="M63.7,124.2c2.4,0,4.6,0,6.9,0c0-0.6,0-1.1,0-1.6c0-0.5-0.1-0.9-0.1-1.6c-0.3,0.7-0.6,1.1-0.7,1.5
		c-0.4,1.1-1.4,1.2-2.3,1.3c-0.7,0.1-1.1-0.4-1.1-1c0-0.8-0.1-1.7,0.2-2.7c0.5,0.3,1,0.4,1.3,0.8c0.2,0.3,0.3,0.8,0.4,1.2
		c0.1,0,0.1,0,0.2,0c0-1.2,0-2.5,0-3.9c-0.5,0.8-0.9,1.7-2.1,1.9c0-0.9,0-1.8,0-2.6c0-0.6,0.6-1,1.2-0.9c1.1,0.1,1.9,0.8,2.3,1.8
		c0.1,0.2,0.1,0.5,0.2,0.7c0.1,0,0.1,0,0.2-0.1c0-0.9,0-1.8,0-2.8c-2,0-4,0-6.1,0c0.8,0.6,1.2,1.2,1.1,2.1c-0.1,1.2,0,2.4,0,3.6
		C65.1,123.3,65.1,123.3,63.7,124.2z"></path>
	<path fill="#E5E5E5" d="M52.4,116.9c0.9,0.1,0.9,0.9,1.1,1.5c0.8,1.8,1.4,3.7,2.2,5.5c0.1,0.1,0.3,0.3,0.4,0.3
		c0.1,0,0.4-0.2,0.4-0.3c0.5-1.1,0.8-2.2,1.3-3.3c0.6-1.3,0.5-3,2.1-3.8c0,0-0.1-0.6-0.2-0.6c-0.9,0-1.8,0-3.3,0
		c0.6,0.5,0.8,0.7,1.1,0.8c0.7,0.2,1.1,0.4,0.4,1.1c-0.1,0.1-0.1,0.4-0.1,0.6c-0.4,1.2-0.8,2.4-1.4,4c-0.7-1.9-1.2-3.3-1.8-4.7
		c-0.3-0.7-0.1-0.8,0.5-0.9c0.1,0,0.2-0.3,0.2-0.5c0-0.1-0.2-0.3-0.3-0.3c-0.7,0.5-1.5-0.1-2.2,0c-0.2,0-0.4,0.1-0.5,0.3
		C52.2,116.5,52.3,116.9,52.4,116.9z"></path>
</svg>