<svg id="nuvi" version="1.1" width="100%" height="100%" viewBox="0 0 421 286" preserveAspectRatio="xMidYMid meet">
	<rect x="309.9" y="112.7" fill="#E5E5E5" width="10.2" height="58.3"></rect>
	<path fill="#E5E5E5" d="M261.9,159.9c-1.8,1.8-3.7,2.7-5.8,2.7h-0.4c-5.9,0-6.9-3.6-7-5.7v-44.2h-10.2V157
		c0,6.4,4.6,15.9,17.2,15.9h0.4c6.2,0,10.6-3.2,13.3-6c0.6-0.7,5.2-7,37.3-54.2h-11.9C267.7,152,262.8,158.9,261.9,159.9"></path>
	<path fill="#E5E5E5" d="M223.3,143.5c0,10.8-8.7,19.5-19.5,19.5c-10.8,0-19.5-8.8-19.5-19.5v-30.8h-10.2v30.8
		c0,16.4,13.3,29.7,29.7,29.7c16.4,0,29.7-13.3,29.7-29.7v-30.8h-10.2V143.5z"></path>
	<path fill="#E5E5E5" d="M158.8,156.9c-0.1,2.2-1.1,5.8-7,5.8h-0.4c-2.1,0-4-0.9-5.8-2.7c-1.7-2.2-13.7-19.4-32.9-47.3h-11.9v58.3
		h10.2v-42.8l1,1.5c24.7,35.8,25.6,36.7,26,37.2c3.8,3.9,8.3,6,13.3,6h0.4c12.6,0,17.2-9.5,17.2-15.9v-44.2h-10.2L158.8,156.9
		L158.8,156.9z"></path>
</svg>