<svg id="orca" version="1.1" width="100%" height="100%" viewBox="0 0 421 286" preserveAspectRatio="xMidYMid meet">
	<path fill="#E5E5E5" d="M365.7,166.6v-13.5c0-3.6-1.9-4.7-4.6-4.7c-2.5,0-4.8,1.5-6.1,3.2v15h-3.2v-28.4h3.2v10.8
		c1.4-1.7,4.3-3.5,7.4-3.5c4.3,0,6.5,2.1,6.5,6.5v14.5H365.7z"></path>
	<path fill="#E5E5E5" d="M340,162.3v-13.4h-3.4v-2.8h3.4v-5.6h3.2v5.6h4.2v2.8h-4.2v12.8c0,1.5,0.7,2.6,2.1,2.6
		c0.9,0,1.7-0.4,2.2-0.9l0.9,2.4c-0.8,0.8-2,1.3-3.8,1.3C341.5,167.2,340,165.4,340,162.3z"></path>
	<rect x="329.8" y="138.3" fill="#E5E5E5" width="3.2" height="28.4"></rect>
	<path fill="#E5E5E5" d="M320.2,166.6v-2.3c-1.7,1.9-4,2.8-6.8,2.8c-3.5,0-7.2-2.3-7.2-6.8c0-4.6,3.7-6.8,7.2-6.8
		c2.8,0,5.1,0.9,6.8,2.8v-3.7c0-2.8-2.2-4.3-5.2-4.3c-2.5,0-4.5,0.9-6.3,2.8l-1.5-2.2c2.2-2.3,4.8-3.4,8.2-3.4c4.3,0,7.9,2,7.9,6.9
		v14.1H320.2z M320.2,162.3v-3.9c-1.2-1.7-3.4-2.6-5.7-2.6c-3,0-5.1,1.9-5.1,4.5c0,2.6,2.1,4.5,5.1,4.5
		C316.8,164.9,319,164,320.2,162.3z"></path>
	<path fill="#E5E5E5" d="M282.2,156.4c0-6,4.3-10.8,10.1-10.8c6.2,0,9.9,4.8,9.9,11v0.8h-16.6c0.3,3.9,3,7.1,7.4,7.1
		c2.3,0,4.7-0.9,6.3-2.6l1.5,2.1c-2,2-4.8,3.1-8.2,3.1C286.6,167.2,282.2,162.8,282.2,156.4z M292.3,148.2c-4.4,0-6.5,3.7-6.7,6.8
		h13.5C299,152,297,148.2,292.3,148.2z"></path>
	<polygon fill="#E5E5E5" points="273.4,166.6 273.4,153.6 256.8,153.6 256.8,166.6 253.3,166.6 253.3,138.3 256.8,138.3
		256.8,150.5 273.4,150.5 273.4,138.3 276.9,138.3 276.9,166.6 	"></polygon>
	<path fill="#E5E5E5" d="M228.3,166.6v-2.3c-1.7,1.9-4,2.8-6.8,2.8c-3.5,0-7.2-2.3-7.2-6.8c0-4.6,3.7-6.8,7.2-6.8
		c2.8,0,5.1,0.9,6.8,2.8v-3.7c0-2.8-2.2-4.3-5.2-4.3c-2.5,0-4.5,0.9-6.3,2.8l-1.5-2.2c2.2-2.3,4.8-3.4,8.2-3.4c4.3,0,7.9,2,7.9,6.9
		v14.1H228.3z M228.3,162.3v-3.9c-1.2-1.7-3.4-2.6-5.7-2.6c-3,0-5.1,1.9-5.1,4.5c0,2.6,2.1,4.5,5.1,4.5
		C224.9,164.9,227.1,164,228.3,162.3z"></path>
	<path fill="#E5E5E5" d="M193.2,156.4c0-6.1,4.1-10.8,10.2-10.8c3.7,0,6,1.5,7.5,3.6l-2.1,2c-1.4-1.9-3.1-2.7-5.2-2.7
		c-4.4,0-7.1,3.4-7.1,7.9s2.7,7.9,7.1,7.9c2.1,0,3.9-0.9,5.2-2.7l2.1,2c-1.6,2-3.8,3.6-7.5,3.6C197.4,167.2,193.2,162.5,193.2,156.4
		z"></path>
	<path fill="#E5E5E5" d="M180.4,166.6v-20.5h3.2v3.3c1.7-2.2,4-3.7,6.8-3.7v3.3c-0.4-0.1-0.8-0.1-1.3-0.1c-2,0-4.6,1.6-5.6,3.3v14.5
		H180.4z"></path>
	<path fill="#E5E5E5" d="M147.7,152.5c0-8.4,5.7-14.7,14.1-14.7c8.4,0,14.1,6.3,14.1,14.7c0,8.4-5.7,14.7-14.1,14.7
		C153.4,167.2,147.7,160.9,147.7,152.5z M172.2,152.5c0-6.6-4.1-11.5-10.4-11.5c-6.4,0-10.4,4.9-10.4,11.5c0,6.6,4,11.5,10.4,11.5
		C168.1,164,172.2,159.1,172.2,152.5z"></path>
	<path fill-rule="evenodd" clip-rule="evenodd" fill="#E5E5E5" d="M96.4,146.1c-3.6,4.6-6.8,9.6-15.3,9.2c1.1-3.9,2.2-7.7,2.7-12.2
		c-12,0.6-26.6,10.7-19.7,23.1c3.6-1.4,7.7-2.3,12.9-2c-1.3,3-2.9,5.7-4.4,8.5c-14.3-1.1-13.9-18.7-5.8-26.9
		c13.1-13.1,38.6-6.3,40.5,12.2c-0.1,0.3,0.1,0.3,0.3,0.3C103.8,155.7,100.9,149.1,96.4,146.1z"></path>
	<path fill-rule="evenodd" clip-rule="evenodd" fill="#E5E5E5" d="M77,97.1c0.3,0,0.7,0,1,0c7,4.5,7.5,12.1,14.6,17.7
		c4.7,3.7,10.7,4.6,15.6,7.1c8.9,4.5,19.6,12.7,18.7,26.5c-0.6,8.5-6.9,14.5-17,11.9c-2.7-18-8.5-33.1-28.9-31
		c-15,1.5-24.9,16.8-23.1,32c1.1,8.9,8,14.2,18.4,15c0.7,4.6,2.2,8.4,3.4,12.6c-15.6-4.9-29.1-17.2-27.6-38.8
		c1.2-17.5,14.6-26.9,26.9-34.4C79.2,108.8,77.1,103.9,77,97.1z M113.4,131.1c-4.1,6.1,0.7,14.5,4.8,17.7
		C122.3,143.6,121.2,131.4,113.4,131.1z M110.7,151.2c0.6,0,1.1,0,1.7,0c1.1-2.1-0.6-4.1-2.4-4.4
		C110.8,148.3,110.4,149.7,110.7,151.2z"></path>
</svg>