<svg id="owlet" version="1.1" width="100%" height="100%" viewBox="0 0 421 286" preserveAspectRatio="xMidYMid meet">
	<path fill="#E5E5E5" d="M323.3,178.1c-11.1,0-18.9-4.1-18.9-17.4v-17.5h-6v-13.9h6v-13.7l17.2-2.7v16.4h8.6l2.1,13.9h-10.8V158
		c0,3.9,2,5.4,5.6,5.4c1.1,0,2.2-0.2,3.3-0.6l2,14.1C329.8,177.7,327.5,178.1,323.3,178.1z"></path>
	<path fill="#E5E5E5" d="M295.6,158.3h-27.4c1,6,5.2,8.1,10.9,8.1c4.7,0,9.9-1.7,15.3-4.4l1.6,11.5c-5.2,3-11.8,5-19.1,5
		c-15.3,0-25.8-7.8-25.8-24.7c0-15.8,9.8-25.4,23.2-25.4c15.2,0,21.7,11.1,21.7,25.3C295.9,155.5,295.8,157.3,295.6,158.3z
		 M273.7,139c-3.5,0-5.7,3.5-5.8,10.5h11.8C279.5,142.5,277.2,139,273.7,139z"></path>
	<polygon fill="#E5E5E5" points="229.5,177.4 229.5,110 246.8,107.3 246.8,177.4 	"></polygon>
	<polygon fill="#E5E5E5" points="213.2,177.4 196.2,177.4 190.8,153.6 185.4,177.4 168.2,177.4 156,130.6 174.1,128.7 179,154.5
		184.2,129.3 200,129.3 205.3,154.4 210,129.3 225.9,129.3 	"></polygon>
	<path fill="#E5E5E5" d="M120.9,178.7c-19.5,0-32.5-14-32.5-34.7c0-20.8,12.9-34.9,32.6-34.9c19.6,0,32.5,14,32.5,34.7
		C153.6,164.5,140.7,178.7,120.9,178.7z M121,124.2c-8.2,0-12.7,7.7-12.7,19.7c0,12.1,4.6,19.7,12.7,19.7c8.2,0,12.7-7.7,12.7-19.7
		C133.8,131.9,129.2,124.2,121,124.2z"></path>
</svg>