<svg id="saga" version="1.1" width="100%" height="100%" viewBox="0 0 421 286" preserveAspectRatio="xMidYMid meet">
	<path fill="#E5E5E5" d="M247.4,136.9c0.4,1.6,1,2.6,2.2,3.3c0.6,0.3,1.4,0.5,2.3,0.5c0.2,0,0.4,0,0.7,0c0.3,0,0.8-0.1,1.4-0.2
		c3.1-0.7,5.3-2.1,6.7-4.3c1.1-1.7,1.5-3.6,1.3-5.9c-0.1-0.7-0.2-1.4-0.3-2l-0.7-3l-0.6,0.4c-1.4,0.9-3,1.8-4.9,2.8l-3.9,1.8
		c-1.7,0.9-3,1.9-3.7,2.9l-0.1,0.1c-0.3,1-0.5,2-0.4,2.8C247.3,136.4,247.4,136.6,247.4,136.9z"></path>
	<path fill="#E5E5E5" d="M226.2,145.2c-0.6-2.6-1.6-5.1-2.9-7.3c-1.3-2.2-3-3.9-5.1-5.2c-1.3-0.8-2.5-1.1-4-1
		c-0.7,0.1-1.5,0.3-2.5,0.6c-1.7,0.7-3,1.6-3.8,2.6c-0.8,1-1.3,2.2-1.4,3.6c-0.1,0.9,0,1.8,0,2.8c0.2,2.2,0.8,4.5,1.7,6.8
		c1,2.5,2.2,4.6,3.4,6.1c1.2,1.4,2.4,2.4,3.7,2.9c0.7,0.3,1.4,0.4,2.1,0.4c0.2,0,0.4,0,0.5,0c0.3,0,0.5-0.1,0.8-0.1
		c2.2-0.4,3.9-1.2,5.2-2.2c1.2-1,2-2.3,2.4-3.9l0-0.1c0.3-0.9,0.3-2,0.2-3.3C226.6,147,226.4,146.1,226.2,145.2z"></path>
	<path fill="#E5E5E5" d="M192.7,142.7c0,0,0-0.1,0-0.1c0-0.1,0-0.1,0-0.3l-3.1-12.1l-6.7,16.5l10.7,0.7l-0.1-0.6
		C193,145.3,192.8,144,192.7,142.7z"></path>
	<path fill="#E5E5E5" d="M303.9,140.5c-0.7-7.6-6.1-13.8-13.5-15.5c-1.7-0.4-3.6-0.5-5.4-0.4c-0.1-0.4-0.2-0.7-0.2-1.1l-3.8-16.5
		c-0.9-3.8-2.5-7.2-4.9-10c-2.4-2.8-5.5-5-9.2-6.5l-0.4-0.1c-4.2-1.5-8.7-2-14.2-1.5c-2.5,0.2-5.1,0.7-7.7,1.3
		c-8.5,1.9-14.9,5.7-19.1,11.3c-2,2.6-3.4,5.3-4.2,8.3c-2.5-0.2-5-0.3-7.4,0c-3,0.3-6,0.9-8.9,1.9c-1.8-2.7-4.8-4.5-8.2-4.7
		l-8.1-0.6c-0.9,0-1.8,0-2.7,0c-1.6,0.2-3.2,0.6-4.7,1.2c-1-1.4-2.1-2.8-3.4-4.1l-0.1-0.1c-5.5-5.3-13.2-8.2-22.9-8.8
		c-2.8-0.2-5.6-0.1-8.2,0.1c-6.4,0.6-11.9,2.5-16.4,5.6c-3.4,2.5-6.1,5.6-8,9.3c-1.8,3.5-2.8,7.5-3.1,11.8c-0.1,1.7-0.1,3.4,0.1,5
		c0.2,2.8,0.9,5.4,1.9,7.7c0.4,1.2,0.9,2.4,1.6,3.5c-0.9,0.5-1.8,1.1-2.6,1.8c-2.1,2-3.3,4.8-3.3,7.7c0,1.5,0.1,2.7,0.2,3.8
		c0.6,7.4,3.5,13.8,8.4,18.6c0,0,8.7,9.8,25.1,9.8c2.9,0,5.7,0.1,8.2-0.1c4.1-0.4,7.9-1.3,11.3-2.7l3.3,0.2
		c4.7,0.3,8.9-2.4,10.6-6.8l1.1-2.7l3.8,0.3l0.7,3c0.9,3.6,3.8,6.6,7.4,7.6c-0.1,2.4,0.7,4.8,2.1,6.7c3.3,4.4,7.1,7.7,11.4,9.8
		c2,1,4,1.7,6,2.1c2,0.4,4.1,0.7,6.1,0.7c0.9,0,1.8,0,2.7-0.1c3.4-0.3,7-1.2,10.6-2.7c7-2.9,12.9-7.5,17.3-13.7
		c3.5-4.8,5.1-10.8,4.5-17.2c-0.1-0.6-0.1-1.2-0.2-1.8c2.5-0.6,5.1-1.4,7.7-2.3c3.3-1.1,6.3-2.7,9.1-4.8c2.3,2.2,5.1,3.7,8.1,4.4
		c1.7,0.4,3.6,0.5,5.4,0.4c4.6-0.4,8.8-2.6,11.8-6.2C302.9,149.7,304.3,145.1,303.9,140.5z M292.5,147.1c-1.3,1.6-3.2,2.6-5.3,2.8
		c-0.2,0-0.5,0-0.7,0c-4.1,0-7.4-3.1-7.8-7.1c-0.4-4.3,2.8-8.1,7.1-8.5c0.2,0,0.5,0,0.7,0c4.1,0,7.4,3.1,7.8,7.1
		C294.5,143.4,293.9,145.4,292.5,147.1z M245.7,175.2c-3.4,4.7-7.9,8.2-13.2,10.4c-2.7,1.1-5.3,1.8-7.8,2c-3.5,0.3-6.7-0.3-9.7-1.7
		c-2.9-1.4-5.6-3.8-8-7c-0.2-0.3-0.2-0.6-0.2-0.9c0.1-0.3,0.3-0.6,0.6-0.7l11.9-4.9c0.1,0,0.2-0.1,0.4-0.1c0.2,0,0.4,0.1,0.6,0.2
		c1.3,1,2.9,1.6,4.8,1.7c0.4,0,0.8,0,1.2,0c1.4-0.1,2.7-0.6,3.8-1.4c1.5-1,2.5-2.5,3.2-4.6c0.4-1.1,0.5-2.3,0.3-3.7
		c-0.1-0.8-0.3-1.8-0.6-3.1l-0.3-1.3l-0.6,1.2c-1.1,2.2-2.6,4-4.6,5.4c-2.7,1.9-5.7,3-9.1,3.3c-0.6,0.1-1.1,0.1-1.7,0.1l-0.2,0
		c-1.6,0-3.3-0.3-5.1-0.8l-0.1,0l-0.1,0c-0.2,0.1-0.3,0.1-0.4,0.1l-10.9-0.8c-0.4,0-0.8-0.3-0.9-0.7l-2.5-9.8l-17.9-1.2l-3.6,9.4
		c-0.1,0.4-0.5,0.6-1,0.6l-5.9-0.4l-0.1,0.1c-2.9,1.5-6.3,2.5-10.2,2.9c-2.1,0.2-4.3,0.2-6.7,0.1c-4.1-0.3-7.6-0.9-10.6-1.9
		c-3-1.1-5.6-2.6-7.6-4.4l-0.1-0.1c0,0,0,0,0,0L133,163h0c-3.6-3.3-5.7-7.7-6.2-13.2c-0.1-0.9-0.1-1.9-0.1-2.9
		c0-0.3,0.1-0.6,0.3-0.8c0.2-0.2,0.4-0.3,0.7-0.3c0,0,0.1,0,0.1,0l12.2,0.7c0.5,0,0.9,0.4,1,0.9l0,0.3c0.1,1.6,0.5,2.9,1,4
		c0.5,1.1,1.2,1.9,2.1,2.6l0,0c2.1,1.6,5.1,2.6,8.9,2.8c1.2,0.1,2.3,0.1,3.4,0c1.8-0.2,3.2-0.6,4.4-1.3c0.9-0.5,1.5-1.1,1.9-1.9
		c0.5-0.8,0.7-1.7,0.8-2.8v-0.4c-0.1-0.7-0.3-1.3-0.9-2c-0.6-0.7-1.5-1.5-2.7-2.2c-2.4-1.5-6.1-3-10.9-4.4l-0.3-0.1l-0.2-0.1
		l-1.3-0.4c-3.2-0.9-5.5-1.7-7.4-2.5c-2-0.8-3.4-1.6-4.5-2.4c-2.4-1.5-4.1-3.7-4.9-6.4l0-0.1c-0.7-1.5-1.1-3.2-1.3-5
		c-0.1-1-0.1-2.2,0-3.5c0.2-3,0.9-5.6,2-8c1.2-2.3,2.9-4.3,5.1-5.9l0,0c3-2.1,6.9-3.3,11.5-3.8c2-0.2,4.3-0.2,6.7-0.1
		c7.3,0.4,13,2.5,16.8,6.2l0,0c3.3,3.4,5.2,7.6,5.6,12.4c0.1,1,0.1,1.9,0.1,2.8c0,0.3-0.1,0.5-0.3,0.7c-0.2,0.2-0.4,0.3-0.7,0.3h0
		l-7-0.4c-1.5-0.1-2.9-0.5-3.9-1.3c-1.1-0.8-1.9-1.9-2.5-3.3c-0.4-1-1.1-1.9-2-2.8c-1.8-1.5-4.5-2.3-7.9-2.6c-1.2-0.1-2.2-0.1-3,0
		c-1.7,0.2-3,0.6-3.9,1.2l-0.1,0.1c-0.8,0.5-1.4,1.1-1.8,1.9c-0.4,0.8-0.7,1.6-0.7,2.7v0.4l0,0.1c0.1,0.6,0.3,1.1,0.6,1.5
		c0.3,0.5,0.9,1.1,1.6,1.6c1.5,1.1,3.8,2.1,6.8,2.9l0.1,0c1.9,0.7,3.3,1.1,4.1,1.3l0.3,0.1c2,0.8,3.8,1.5,5.3,2
		c1.5,0.5,2.8,0.9,3.7,1.2l0.2,0.1c0.8,0.4,1.6,0.8,2.4,1.2c0.8,0.4,1.6,0.8,2.4,1.2l0.1,0.1c1,0.7,1.9,1.4,2.7,2.3l0.5,0.5l8.2-19
		l0,0c0.5-1,1.1-1.9,2-2.5c0.8-0.6,1.8-0.9,2.9-1.1c0.4,0,0.8,0,1.2,0l8.1,0.5c0.4,0,0.8,0.3,0.9,0.7l2.3,8l0.6-0.4
		c1.7-1.3,3.8-2.4,6.1-3.4c2.8-1.2,5.8-1.9,8.7-2.1c2.7-0.2,5.4-0.1,8.1,0.4c2.7,0.5,5.2,1.7,7.3,3.7c1.5,1.3,2.9,3.1,4.2,5.2
		l0.4,0.7l0.4-0.6c0.2-0.3,0.5-0.6,0.7-1c2.6-2.9,6.2-5.4,10.7-7.2l0.2-0.1c0.5-0.1,1.2-0.4,1.9-0.7c0.8-0.4,1.8-0.8,2.9-1.1
		c1.7-0.7,3.1-1.3,4.2-2c0.9-0.6,1.6-1.3,1.9-1.9c0.2-0.4,0.2-0.7,0.2-1.1l-0.1-0.3c-0.2-0.7-0.4-1.1-0.8-1.5
		c-0.4-0.4-1-0.6-1.8-0.6c-1-0.1-2.1-0.1-3.1,0c-0.7,0.1-1.4,0.2-2,0.3c-1.2,0.3-2.4,0.7-3.3,1.2v-0.1L246,113
		c-1,0.7-1.6,1.5-1.8,2.8c-0.1,0.4-0.4,0.7-0.7,0.8l-12.2,2.8c-0.3,0.1-0.6,0-0.8-0.2c-0.2-0.2-0.4-0.4-0.4-0.8l0-0.1
		c-0.4-4,0.7-7.8,3.2-11c2.8-3.7,7.3-6.3,13.6-7.7c2.4-0.5,4.5-0.9,6.4-1c4-0.4,7.4,0,10.2,1.1l0.1,0c2.1,0.9,3.9,2.1,5.3,3.7
		c1.4,1.6,2.3,3.6,2.8,5.9l3.8,16.5c0.4,1.6,0.6,3.1,0.7,4.5c0.3,3,0,5.7-0.8,8c-1.2,3.2-2.9,5.8-5.1,7.6l-0.3,0v0.2
		c-2.3,1.9-4.9,3.4-7.6,4.3c-2.9,1-5.4,1.7-7.5,2.2c-1,0.2-2.1,0.4-3.1,0.5c-2,0.2-4,0.1-6.1-0.4l-0.9-0.2l1.4,3.4
		c1.3,3.1,2,5.9,2.3,8.6C248.7,168.6,247.8,172.2,245.7,175.2z"></path>
</svg>